<svg width="90" height="90" viewBox="0 0 107 100" fill="none"
  xmlns="http://www.w3.org/2000/svg">
  <path
    d="M71.5392 29.68V52.7594L70.6622 54.3594L71.5392 54.84H72.5392V53.0155L77.0858 44.72C76.0832 40.52 73.4805 27.04 80.3285 24M71.5392 29.68C71.5178 13.32 57.3098 0 39.8592 0C22.4085 0 8.22182 13.32 8.22182 29.68V67.8C0.134207 73.2472 0.582325 81.8395 1.05051 90.8165L1.05382 90.88M71.5392 29.68L70.5392 29.6813M71.5392 29.68H70.5392V29.6813M1.05382 90.88C1.18182 93.18 1.30982 95.58 1.30982 98C1.30982 99.1 2.26982 100 3.44315 100H76.3178C77.4912 100 78.4512 99.1 78.4512 98C78.4512 95.58 78.5792 93.18 78.7072 90.88M1.05382 90.88L2.05227 90.8244C2.05231 90.825 2.05234 90.8256 2.05237 90.8262M1.05382 90.88L2.05246 90.8279C2.05243 90.8273 2.0524 90.8268 2.05237 90.8262M78.7072 90.88C79.0485 84.34 79.3685 78.02 76.4245 72.94L89.5232 50.98C93.5978 49.46 106.376 44.14 106.163 37.24C106.035 32.98 100.894 29.4 97.8432 27.64M78.7072 90.88L77.7085 90.8279C77.7086 90.8271 77.7086 90.8263 77.7086 90.8255M78.7072 90.88L77.7087 90.8244C77.7087 90.8248 77.7087 90.8251 77.7086 90.8255M97.8432 27.64C92.4458 24.54 84.6592 22.08 80.3285 24M97.8432 27.64L97.3451 28.5071C97.3448 28.507 97.3444 28.5068 97.3441 28.5066M97.8432 27.64L97.3434 28.5062C97.3437 28.5063 97.3439 28.5064 97.3441 28.5066M80.3285 24L80.7338 24.9142M80.3285 24L80.7342 24.914C80.7341 24.9141 80.7339 24.9141 80.7338 24.9142M80.7338 24.9142C79.3217 25.5412 78.3548 26.7157 77.7202 28.301C77.0793 29.9018 76.8018 31.869 76.763 33.9437C76.6854 38.0915 77.5634 42.414 78.0585 44.4878L78.148 44.8627L77.9628 45.2006L72.4161 55.3206L70.5392 54.84V29.6813M80.7338 24.9142C82.5915 24.0906 85.3515 24.1623 88.4515 24.9096C91.5096 25.6469 94.717 26.9978 97.3441 28.5066M70.5392 29.6813C70.5186 13.9321 56.819 1 39.8592 1C22.8999 1 9.22182 13.9313 9.22182 29.68V67.8V68.3321L8.78045 68.6294C1.21331 73.726 1.57672 81.7049 2.05237 90.8262M2.05237 90.8262C2.18023 93.1238 2.30982 95.5492 2.30982 98C2.30982 98.4879 2.76033 99 3.44315 99H76.3178C77.0006 99 77.4512 98.4879 77.4512 98C77.4512 95.5489 77.5808 93.1232 77.7086 90.8255M77.7086 90.8255C78.054 84.2077 78.326 78.2155 75.5593 73.4414L75.2645 72.9327L75.5657 72.4277L88.6643 50.4677L88.8444 50.1659L89.1736 50.0431C91.1881 49.2916 95.3214 47.6116 98.9074 45.2882C100.702 44.1259 102.313 42.831 103.455 41.4477C104.596 40.0643 105.207 38.6683 105.164 37.2709L105.164 37.27C105.111 35.5288 104.019 33.8022 102.4 32.217C100.803 30.6538 98.8365 29.3676 97.3441 28.5066M66.8537 66.5066L68.2298 67.0652V65.58V29.68C68.2298 14.9089 55.4547 3 39.8592 3C24.2855 3 11.4885 14.9084 11.4885 29.68V65.58V67.0652L12.8646 66.5066C14.875 65.6905 17.1819 64.9688 19.9568 64.4211L19.9625 64.4199C24.8726 63.4211 28.585 59.6255 29.2444 54.857L29.3174 54.3291L28.9199 53.9741C24.2021 49.7609 21.0618 42.8818 21.0618 35.06V34.886C21.0914 34.4268 21.4973 33.9689 22.0557 33.9155L22.0593 33.9151C32.9216 32.8366 42.3386 25.7683 47.3144 15.1235L47.3144 15.1235L47.318 15.1158C47.4363 14.8569 47.7098 14.6205 48.0669 14.5281C48.3979 14.4425 48.7626 14.5037 49.064 14.7046C54.9124 18.8073 58.6352 26.5707 58.6352 35.06C58.6352 42.8839 55.5148 49.7622 50.7984 53.9741L50.4003 54.3296L50.4741 54.8582C51.133 59.5795 54.84 63.4417 59.76 64.4208L59.7615 64.4211C62.5364 64.9688 64.8433 65.6905 66.8537 66.5066ZM53.956 80.0368L54.2531 79.2591L53.5421 78.826L48.9225 76.012C48.9212 76.0112 48.9199 76.0104 48.9186 76.0095C48.6002 75.8088 48.4204 75.4825 48.4107 75.1883C48.4017 74.9004 48.5533 74.5909 48.8764 74.3766C48.8773 74.376 48.8782 74.3753 48.8792 74.3747L55.2297 70.2592L55.841 69.863L55.6513 69.1597L54.67 65.5197L54.3317 64.2649L53.2055 64.9134C49.16 67.2429 44.6184 68.4 40.0512 68.4C35.3829 68.4 30.6965 67.1658 26.5893 64.7207L25.4586 64.0476L25.1129 65.3173L24.0676 69.1573L23.8758 69.862L24.4886 70.2592L30.8391 74.3747C30.8401 74.3753 30.841 74.3759 30.8419 74.3765C31.1348 74.5711 31.3014 74.8909 31.307 75.2038C31.2916 75.5103 31.1192 75.817 30.8096 76.0035L30.8056 76.006L26.1763 78.826L25.4652 79.2591L25.7623 80.0368C26.9389 83.1171 30.5648 90.6417 39.3082 96.4145L39.8592 96.7783L40.4101 96.4145C49.1535 90.6417 52.7794 83.1171 53.956 80.0368ZM24.2127 35.6526L23.3213 35.7956L23.3728 36.697C23.9862 47.4394 30.9422 56.4 39.8592 56.4C44.5254 56.4 48.6799 53.9165 51.6354 50.0442C54.5904 46.1727 56.3898 40.8699 56.3898 35.06C56.3898 28.3544 53.9422 22.0591 49.7706 18.0215L48.8322 17.1131L48.2001 18.256C42.962 27.7267 34.2343 34.0448 24.2127 35.6526ZM48.707 57.0818L48.3466 55.9285L47.2811 56.4981C44.9837 57.7261 42.478 58.4 39.8592 58.4C37.2408 58.4 34.7555 57.7263 32.4774 56.5168L31.4088 55.9494L31.0528 57.1057C30.4984 58.906 29.5684 60.5391 28.3197 61.9327L27.4785 62.8716L28.5842 63.4771C35.6004 67.3193 44.2127 67.3603 51.271 63.6238L52.4133 63.0191L51.5412 62.0652C50.2382 60.6401 49.2847 58.9309 48.707 57.0818ZM20.4748 66.3771L20.4642 66.3792C12.1257 68.0362 7.75627 70.9559 5.69504 75.2824C4.68426 77.404 4.27121 79.782 4.14143 82.3479C4.01259 84.8952 4.16116 87.6993 4.31956 90.6891L4.32171 90.7296C4.32174 90.7301 4.32176 90.7306 4.32179 90.7311C4.40711 92.4508 4.49177 94.2184 4.53409 96.0432L4.55674 97.02H5.53382H33.6085H36.3532L34.2518 95.2544C25.4265 87.8393 23.1574 79.3624 23.0791 79.0538L23.0776 79.0482C22.9823 78.6818 23.1322 78.2627 23.541 78.0179L23.546 78.0149L26.874 75.9949L28.234 75.1694L26.9005 74.3018L21.9577 71.0861C21.9567 71.0854 21.9557 71.0848 21.9548 71.0841C21.5683 70.8267 21.4237 70.3981 21.5181 70.0399C21.5183 70.0391 21.5185 70.0384 21.5187 70.0377L22.2212 67.4632L22.6511 65.888L21.0525 66.221C20.9165 66.2494 20.7845 66.2897 20.6994 66.3158L20.6749 66.3232C20.5756 66.3534 20.5216 66.3684 20.4748 66.3771ZM74.0446 75.2824C71.9869 70.9633 67.6289 68.0462 59.3182 66.3877C59.2789 66.3758 59.2417 66.363 59.1898 66.3452C59.1648 66.3365 59.1363 66.3267 59.1025 66.3153C58.9938 66.2785 58.8446 66.2303 58.6674 66.1971L57.0981 65.9029L57.5184 67.4432L58.2194 70.0118C58.2198 70.0134 58.2202 70.0149 58.2206 70.0165C58.3173 70.3964 58.1713 70.8068 57.7849 71.0641C57.7839 71.0648 57.7829 71.0654 57.782 71.0661L52.8391 74.2818L51.5056 75.1494L52.8656 75.9749L56.1936 77.9949L56.1987 77.9979C56.6074 78.2427 56.7574 78.6618 56.662 79.0282L56.6599 79.0363L56.658 79.0444C56.5812 79.361 54.3146 87.8375 45.4889 95.2335L43.3809 97H46.1311H74.1845H75.1613L75.1842 96.0234C75.2173 94.6125 75.2891 93.2291 75.36 91.8633C75.3796 91.4841 75.3992 91.1062 75.4179 90.7296L75.4201 90.689C75.5785 87.6993 75.7271 84.8952 75.5982 82.3479C75.4684 79.782 75.0554 77.404 74.0446 75.2824ZM72.9032 70.1695L73.8104 71.02L74.4464 69.9515L85.9238 50.6715L86.4717 49.7511L85.5158 49.2676L80.6518 46.8076L79.789 46.3713L79.3238 47.2189L70.6198 63.0789L70.4965 63.3036V63.56V67.78V68.3187L70.9464 68.6151C71.6805 69.0987 72.3187 69.6216 72.9032 70.1695ZM87.7106 48.0544L88.1032 48.2507L88.5134 48.0946C91.5084 46.9552 95.0325 45.2646 97.8157 43.4386C99.2043 42.5276 100.447 41.5578 101.349 40.5784C102.221 39.6319 102.928 38.5107 102.896 37.3132L102.896 37.3082C102.878 36.7548 102.671 36.1885 102.371 35.6511C102.064 35.1031 101.627 34.5252 101.07 33.9341C99.9553 32.7519 98.3093 31.4598 96.1026 30.1937C93.4883 28.68 90.6252 27.5246 88.096 26.8786C86.8311 26.5555 85.6279 26.3543 84.5663 26.3063C83.5244 26.2593 82.5279 26.3551 81.7366 26.7058L81.736 26.7061C80.6268 27.1986 80.0015 28.3205 79.6388 29.4896C79.265 30.6939 79.095 32.1826 79.062 33.7667C78.996 36.9442 79.4785 40.7231 80.2074 43.8846L80.3126 44.341L80.7305 44.5524L82.3518 45.3724L83.1985 45.8005L83.6706 44.9776L86.4012 40.2176L86.4041 40.2126C86.6784 39.7279 87.3646 39.495 87.9684 39.7953C88.5261 40.0728 88.6758 40.6501 88.4193 41.1056C88.4189 41.1062 88.4186 41.1068 88.4182 41.1074L85.6904 45.8624L85.1635 46.7809L86.1106 47.2544L87.7106 48.0544Z"
    stroke="#BA7894" stroke-width="2" />
</svg>