<svg width="90" height="90" viewBox="0 0 95 98" fill="none" xmlns="http://www.w3.org/2000/svg">
  <path
    d="M59.2383 72.4548V53.4591H35.7618V72.4548C35.7618 73.474 35.0951 74.3719 34.1197 74.6674C25.1073 77.3971 10.3623 80.0594 10.3623 92.4366V93.769C10.3623 94.7768 11.1792 95.5938 12.1871 95.5938H82.813C83.8209 95.5938 84.6378 94.7768 84.6378 93.769V92.4366C84.6378 80.0594 69.8928 77.3971 60.8804 74.6674C59.905 74.3719 59.2383 73.474 59.2383 72.4548Z"
    fill="#F9F9F9" />
  <path
    d="M60.8804 74.6676C59.9048 74.3721 59.2383 73.4742 59.2383 72.4549V53.4593H53.6133V74.5174C53.6133 75.5367 54.2798 76.4346 55.2554 76.7301C64.2676 79.4598 79.0128 80.4346 79.0128 92.8118V93.7692C79.0128 94.7768 78.1958 95.5938 77.188 95.5938H82.813C83.8208 95.5938 84.6378 94.777 84.6378 93.7692V92.4368C84.6378 80.0596 69.8926 77.3973 60.8804 74.6676Z"
    fill="white" />
  <path
    d="M75.9076 35.5693V30.8136C75.9076 15.1245 63.1891 2.40602 47.5 2.40602C31.8108 2.40602 19.0923 15.1245 19.0923 30.8136V35.5693H75.9076Z"
    fill="white" />
  <path
    d="M47.5 2.40602C46.0225 2.40602 44.5713 2.51909 43.1545 2.73659C57.529 4.88721 70.2826 17.3057 70.2826 32.305V35.5693H75.9076V30.8136C75.9076 15.1245 63.1891 2.40602 47.5 2.40602Z"
    fill="white" />
  <path
    d="M43.8606 17.0419C33.4811 17.0419 25.0669 25.4562 25.0669 35.8356V45.8997C25.0669 57.1274 40.2529 65.2769 47.5001 65.2769C54.7474 65.2769 69.9336 57.1274 69.9336 45.8997V35.8356C69.9336 25.4562 61.5193 17.0419 51.1397 17.0419H43.8606Z"
    fill="#F9F9F9" />
  <path
    d="M51.1396 17.0419H45.5146C55.894 17.0419 64.3083 25.4562 64.3083 35.8356V45.8997C64.3083 55.8227 52.4474 63.3402 44.6875 64.9534C45.7077 65.1655 46.6579 65.2769 47.5 65.2769C54.7472 65.2769 69.9333 57.1274 69.9333 45.8997V35.8356C69.9333 25.4562 61.519 17.0419 51.1396 17.0419Z"
    fill="white" />
  <path
    d="M34.7428 57.8054L27.3191 50.2239L25.5696 41.6535L27.0656 34.9149L18.0557 22.4771L15.2256 6.69014C15.1341 6.18052 14.6469 5.84152 14.1373 5.93283L2.42494 8.03264C1.89919 8.12696 1.5585 8.64051 1.67569 9.16139L9.37313 43.3496C10.2276 47.145 12.4254 50.5033 15.5616 52.8056L32.7009 65.3883C33.4738 65.9559 34.5662 65.8184 35.1551 65.0617C36.8535 62.879 36.6756 59.7793 34.7428 57.8054Z"
    fill="white" />
  <path
    d="M20.4968 36.0928L22.2121 45.6606C22.5374 47.4746 24.2714 48.6814 26.0855 48.3563C27.8993 48.031 29.1063 46.297 28.781 44.4831L27.0657 34.9151L20.4968 36.0928Z"
    fill="white" />
  <path
    d="M60.2572 57.8054L67.6809 50.2239L69.4305 41.6535L67.9344 34.9149L76.9444 22.4771L79.7745 6.69014C79.866 6.18052 80.3531 5.84152 80.8627 5.93283L92.5751 8.03264C93.1009 8.12696 93.4415 8.64051 93.3244 9.16139L85.6269 43.3496C84.7725 47.145 82.5746 50.5033 79.4385 52.8056L62.2991 65.3883C61.5262 65.9559 60.4339 65.8184 59.8449 65.0617C58.1465 62.879 58.3245 59.7793 60.2572 57.8054Z"
    fill="white" />
  <path
    d="M92.5751 8.03264L88.5122 7.3042C88.788 7.52002 88.9331 7.88227 88.8504 8.24883L81.1532 42.437C80.2985 46.2324 78.1007 49.5909 74.9647 51.893L59.0269 63.5938C59.219 64.1105 59.4905 64.6063 59.8449 65.0617C60.4339 65.8184 61.526 65.9559 62.2989 65.3883L79.4385 52.8056C82.5746 50.5033 84.7723 47.1449 85.6269 43.3496L93.3244 9.16139C93.4415 8.64051 93.1007 8.12696 92.5751 8.03264Z"
    fill="white" />
  <path
    d="M74.5033 36.0928L72.7881 45.6606C72.4628 47.4746 70.7288 48.6814 68.9147 48.3563C67.1008 48.031 65.8939 46.297 66.2192 44.4831L67.9345 34.9151L74.5033 36.0928Z"
    fill="white" />
  <path
    d="M75.6327 79.6713C80.6896 82.2288 84.6383 86.0331 84.6383 92.4363V93.7694C84.6383 94.7763 83.8208 95.5938 82.8139 95.5938H12.1864C11.1796 95.5938 10.3621 94.7763 10.3621 93.7694V92.4363C10.3621 80.0594 25.1071 77.3969 34.1202 74.6669C35.0952 74.3725 35.7627 73.4744 35.7627 72.4544V64.0844"
    stroke="#BA7894" stroke-width="3" stroke-miterlimit="10" stroke-linecap="round"
    stroke-linejoin="round" />
  <path
    d="M59.2375 64.0842V72.4542C59.2375 73.4742 59.905 74.3723 60.88 74.6667C63.4413 75.4429 66.4657 76.2135 69.4807 77.2017"
    stroke="#BA7894" stroke-width="3" stroke-miterlimit="10" stroke-linecap="round"
    stroke-linejoin="round" />
  <path d="M47.5 2.40637C61.1237 2.40637 72.5069 11.9951 75.2669 24.792" stroke="#BA7894"
    stroke-width="3" stroke-miterlimit="10" stroke-linecap="round" stroke-linejoin="round" />
  <path d="M26.0314 29.8822C25.7426 30.7466 25.5139 31.6372 25.3545 32.5522" stroke="#BA7894"
    stroke-width="3" stroke-miterlimit="10" stroke-linecap="round" stroke-linejoin="round" />
  <path
    d="M36.3176 61.5981C40.3226 63.9381 44.5639 65.2769 47.5001 65.2769C50.4383 65.2769 54.6776 63.9381 58.6826 61.6"
    stroke="#BA7894" stroke-width="3" stroke-miterlimit="10" stroke-linecap="round"
    stroke-linejoin="round" />
  <path
    d="M41.2339 17.226C42.0926 17.1041 42.9701 17.0422 43.8608 17.0422H51.1395C60.4001 17.0422 68.0933 23.7379 69.6458 32.5522"
    stroke="#BA7894" stroke-width="3" stroke-miterlimit="10" stroke-linecap="round"
    stroke-linejoin="round" />
  <path
    d="M26.0259 29.895C29.4133 21.7656 51.3243 11.3693 63.605 7.41133C59.0279 4.25552 53.4804 2.40602 47.5001 2.40602C42.7226 2.40602 38.2205 3.5854 34.2691 5.6689"
    stroke="#BA7894" stroke-width="3" stroke-miterlimit="10" stroke-linecap="round"
    stroke-linejoin="round" />
  <path
    d="M26.8863 48.1055C28.2382 47.4867 29.0557 46.013 28.7801 44.483L27.0663 34.9148L18.0551 22.4761L15.2257 6.69047C15.1338 6.18047 14.6463 5.84109 14.1382 5.93297L2.42509 8.03297C1.90009 8.12672 1.55884 8.64047 1.67509 9.16172L9.37384 43.3505C10.227 47.1455 12.4263 50.5036 15.5613 52.8061L32.7007 65.3892C33.4732 65.9555 34.5663 65.8186 35.1551 65.0611C36.8538 62.8786 36.6757 59.7792 34.7426 57.8048L27.3195 50.2242L26.8863 48.1055ZM26.8863 48.1055C26.637 48.2198 26.3688 48.3061 26.0857 48.3567C24.2707 48.6811 22.5382 47.4736 22.212 45.6605L20.4963 36.0923"
    stroke="#BA7894" stroke-width="3" stroke-miterlimit="10" stroke-linecap="round"
    stroke-linejoin="round" />
  <path
    d="M74.5033 36.0925L72.7881 45.6603C72.4627 47.4743 70.7287 48.6811 68.9147 48.356C67.1008 48.0307 65.8939 46.2967 66.2192 44.4828L67.9344 34.9148L76.9451 22.4761L79.7745 6.69047C79.8664 6.18047 80.3539 5.8411 80.862 5.93297L92.5751 8.03297C93.1001 8.12672 93.4414 8.64047 93.3251 9.16172L85.6264 43.3505C84.7732 47.1455 82.5739 50.5036 79.4389 52.8061L62.2995 65.3892C61.527 65.9555 60.4339 65.8186 59.8451 65.0611C58.1464 62.8786 58.3245 59.7792 60.2576 57.8048L67.6807 50.2242L68.1139 48.1055"
    stroke="#BA7894" stroke-width="3" stroke-miterlimit="10" stroke-linecap="round"
    stroke-linejoin="round" />
  <path d="M34.1658 37.7285C35.983 36.6135 37.8003 36.6135 39.6177 37.7285" stroke="#BA7894"
    stroke-width="3" stroke-miterlimit="10" stroke-linecap="round" stroke-linejoin="round" />
  <path d="M55.3823 37.7285C57.1996 36.6135 59.0168 36.6135 60.8343 37.7285" stroke="#BA7894"
    stroke-width="3" stroke-miterlimit="10" stroke-linecap="round" stroke-linejoin="round" />
  <path d="M42.4661 52.2124C45.6781 53.6024 49.3218 53.6024 52.5339 52.2124" stroke="#BA7894"
    stroke-width="3" stroke-miterlimit="10" stroke-linecap="round" stroke-linejoin="round" />
  <path d="M19.7332 24.792C21.0438 18.7207 24.2932 13.3714 28.8044 9.42637" stroke="#BA7894"
    stroke-width="3" stroke-miterlimit="10" stroke-linecap="round" stroke-linejoin="round" />
</svg>