<svg width="90" height="90" viewBox="0 0 89 90" fill="none" xmlns="http://www.w3.org/2000/svg">
  <path
    d="M88.0298 71.7505C87.2496 63.6366 78.2873 56.8489 70.5384 60.9666L67.901 52.39L74.1607 27.562C75.7597 21.1035 74.1607 12.9986 69.4288 3.46077C68.2006 0.654304 63.8604 1.0904 63.1158 4.03037L58.0042 20.5369L52.9193 4.12234C52.1925 1.1527 47.8048 0.799671 46.6003 3.60317C41.8774 13.138 40.2902 21.237 41.8833 27.6895L48.1133 52.4108L45.4433 61.0734C32.1823 54.8968 22.7602 73.391 30.6278 83.4718C36.2407 91.8971 48.766 89.5564 51.8929 80.2114C51.9967 80.4339 56.3814 65.826 56.5298 65.5056L59.2532 64.7254L63.7477 79.3095C64.694 82.0952 66.2604 84.522 68.5863 86.3287C78.489 93.8076 90.2192 82.5699 88.0298 71.7505ZM46.1998 26.6067C44.9954 21.7147 46.096 15.4402 49.4632 7.96714L55.6932 28.0485L50.6736 44.2465L46.1998 26.6067ZM54.1505 61.554C53.4296 61.7617 52.86 62.3194 52.6375 63.0374L48.057 77.7965C46.2799 84.3677 38.4272 86.7826 34.2501 80.87C30.9452 76.2123 31.6543 68.9529 36.4514 65.5768C38.4034 64.2092 40.9221 63.9541 43.1086 64.9004C44.8025 65.6065 46.5351 68.0303 48.324 66.0841C48.5435 65.8438 48.7067 65.5561 48.8016 65.2446L66.5897 7.8544C69.9599 15.3393 71.0397 21.599 69.8531 26.4821L61.5464 59.4447L54.1505 61.554ZM81.7642 80.7662V80.7602C77.961 86.391 70.0696 84.6436 68.1591 78.3572L63.537 63.4675C64.7415 63.0255 65.5781 61.9486 65.8125 60.6996L67.1801 65.1348C67.5391 66.3096 68.7851 66.9712 69.9599 66.6092C71.0308 66.1702 71.7784 65.1615 72.9028 64.7818C81.877 61.4176 86.7423 74.5006 81.7642 80.7662Z"
    fill="#BA7894" />
  <path
    d="M29.6459 55.4902C32.4405 55.858 33.1376 51.6365 30.3579 51.0995C25.4391 50.0256 10.4071 50.6011 13.2847 62.8475L17.263 82.9941C17.4143 83.6587 16.8863 84.3143 16.2039 84.3113H11.1606C7.84089 84.3024 5.15309 81.6087 5.15309 78.289V13.7343C5.15902 9.29323 8.75759 5.69763 13.1987 5.6917H30.0019C31.2301 5.6917 32.2269 4.6949 32.2269 3.4667C32.2269 2.2385 31.2301 1.2417 30.0019 1.2417H13.1987C6.30119 1.2506 0.711988 6.83683 0.706055 13.7343V78.289C0.711988 84.0681 5.39339 88.7495 11.1725 88.7584H16.2158C19.6809 88.791 22.3687 85.4624 21.6211 82.0834L17.6457 61.9367C15.7589 54.0988 26.077 55.1609 29.6459 55.4902Z"
    fill="#BA7894" />
  <path
    d="M30.0019 11.1475H11.7688C8.86441 11.1593 8.85551 15.5856 11.7688 15.5975H30.0019C32.9033 15.5856 32.9152 11.1593 30.0019 11.1475Z"
    fill="#BA7894" />
  <path
    d="M30.0019 21.0562H11.7688C8.86441 21.068 8.85551 25.4943 11.7688 25.5062H30.0019C32.9033 25.4943 32.9152 21.068 30.0019 21.0562Z"
    fill="#BA7894" />
  <path
    d="M30.0019 30.9648H11.7688C8.86441 30.9767 8.85551 35.403 11.7688 35.4148H30.0019C32.9033 35.403 32.9152 30.9767 30.0019 30.9648Z"
    fill="#BA7894" />
  <path
    d="M11.7688 40.8706C8.86441 40.8825 8.85551 45.3087 11.7688 45.3206H30.0019C32.9063 45.3087 32.9152 40.8825 30.0019 40.8706H11.7688Z"
    fill="#BA7894" />
  <path
    d="M58.0043 50.1206C54.7499 50.1354 54.7499 55.0838 58.0043 55.0987C61.2587 55.0838 61.2587 50.1354 58.0043 50.1206Z"
    fill="#BA7894" />
</svg>